<svg width="70" height="70" viewBox="0 0 70 70" fill="none" xmlns="http://www.w3.org/2000/svg">
<g clip-path="url(#clip0_11_93)">
<path d="M37.1738 0.574219C35.834 -0.191406 34.1797 -0.191406 32.8262 0.574219L2.20117 18.0742C0.847656 18.8535 0 20.3027 0 21.875V65.625C0 68.0449 1.95508 70 4.375 70C6.79492 70 8.75 68.0449 8.75 65.625V24.418L35 9.41992L61.25 24.418V65.625C61.25 68.0449 63.2051 70 65.625 70C68.0449 70 70 68.0449 70 65.625V21.875C70 20.3027 69.1523 18.8535 67.7988 18.0742L37.1738 0.574219ZM36.0938 49.6836C37.5442 49.6836 33.9744 50.7092 35 49.6836C36.0256 48.658 31.7294 56.1379 31.7294 54.6875C30.0542 61.5549 34.9318 55.7131 33.9062 54.6875C30.0393 62.4215 36.4504 49.6836 35 49.6836C33.5496 49.6836 36.6795 62.4215 33.9062 54.6875C34.9186 68.2773 32.8262 57.3535 32.8262 49.6836C36.9551 57.3535 32.9537 67.2562 33.9062 54.6875C34.9318 55.7131 34.6433 49.6836 36.0938 49.6836ZM31.7294 49.6836L33.9062 54.6875H36.0938L35 51.9531C35 53.7715 37.0486 56.1914 38.867 56.1914C38.867 58.0098 40.6853 56.1914 38.867 56.1914L35.5469 53.3203L36.0938 49.6836C36.9551 51.2832 33.1693 54.353 34.7689 53.5053C36.3685 52.6577 33.9912 57.2767 33.1435 55.6771L33.9062 54.6875C31.8145 50.791 39.4297 46.8884 35 46.8884L29.5312 57.0117C25.1016 57.0117 45.0078 60.5801 30.8984 54.6875L29.5312 51.9531C28.6699 53.5527 36.0938 50.6543 27.3438 51.9531C28.9434 52.8145 31.9648 51.2832 32.8262 49.6836L32.2693 49.0325L33.6602 46.5801C33.6602 48.3984 27.7129 53.3203 29.5312 53.3203C31.3496 53.3203 31.7294 51.502 31.7294 49.6836Z" fill="#000000"/>
<path d="M37.5447 44.8779H38.9055C40.6643 47.8847 43.959 49.9023 47.7312 49.9023C48.6066 49.9023 49.4661 49.7924 50.2778 49.5883V49.9023V52.4146V67.4878C50.2778 68.8774 49.1398 70 47.7312 70C46.3226 70 45.1846 68.8774 45.1846 67.4878V56.4341L34.3614 64.9756H38.818C40.2266 64.9756 41.3646 66.0982 41.3646 67.4878C41.3646 68.8774 40.2266 70 38.818 70H27.3582C23.1403 70 19.7183 66.6242 19.7183 62.4634V44.9172C19.7183 43.6532 18.7633 42.5777 17.49 42.4207L16.8613 42.3422C15.4686 42.1695 14.4738 40.9134 14.6489 39.5395C14.824 38.1656 16.0973 37.1843 17.49 37.357L18.1187 37.4355C21.9386 37.9066 24.8115 41.1096 24.8115 44.9172V51.6138C27.5492 47.555 32.2286 44.8779 37.5447 44.8779ZM50.2778 46.9584C49.482 47.2331 48.6225 47.3901 47.7312 47.3901C45.4711 47.3901 43.4338 46.4167 42.0331 44.8779C41.7387 44.5561 41.476 44.2106 41.2453 43.8416C40.5131 42.6797 40.0913 41.3137 40.0913 39.8535V32.3169V30.7468V30.6447C40.0913 30.1815 40.4654 29.8125 40.9349 29.8047H40.9508C41.2134 29.8047 41.4601 29.9303 41.6193 30.1344V30.1423L42.6379 31.4769L44.8026 34.3267L45.1846 34.8291H50.2778L50.6598 34.3267L52.8245 31.4769L53.8431 30.1423V30.1344C54.0023 29.9303 54.249 29.8047 54.5116 29.8047H54.5275C54.9971 29.8125 55.3711 30.1815 55.3711 30.6447V30.7468V32.3169V39.8535C55.3711 41.2117 55.005 42.4913 54.3684 43.5904C53.4691 45.1449 52.0127 46.3539 50.2778 46.9584ZM46.4579 39.8535C46.4579 39.5204 46.3237 39.2009 46.0849 38.9653C45.8462 38.7298 45.5223 38.5974 45.1846 38.5974C44.8469 38.5974 44.523 38.7298 44.2842 38.9653C44.0454 39.2009 43.9113 39.5204 43.9113 39.8535C43.9113 40.1867 44.0454 40.5061 44.2842 40.7417C44.523 40.9773 44.8469 41.1096 45.1846 41.1096C45.5223 41.1096 45.8462 40.9773 46.0849 40.7417C46.3237 40.5061 46.4579 40.1867 46.4579 39.8535ZM50.2778 41.1096C50.6155 41.1096 50.9394 40.9773 51.1782 40.7417C51.417 40.5061 51.5512 40.1867 51.5512 39.8535C51.5512 39.5204 51.417 39.2009 51.1782 38.9653C50.9394 38.7298 50.6155 38.5974 50.2778 38.5974C49.9401 38.5974 49.6163 38.7298 49.3775 38.9653C49.1387 39.2009 49.0045 39.5204 49.0045 39.8535C49.0045 40.1867 49.1387 40.5061 49.3775 40.7417C49.6163 40.9773 49.9401 41.1096 50.2778 41.1096Z" fill="#000000"/>
</g>
<defs>
<clipPath id="clip0_11_93">
<rect width="70" height="70" fill="white"/>
</clipPath>
</defs>
</svg>
