<svg width="40" height="40" viewBox="0 0 40 40" fill="none" xmlns="http://www.w3.org/2000/svg">
<path d="M5.71429 0C2.5625 0 0 2.5625 0 5.71429V34.2857C0 37.4375 2.5625 40 5.71429 40H34.2857C37.4375 40 40 37.4375 40 34.2857V5.71429C40 2.5625 37.4375 0 34.2857 0H5.71429ZM19.4643 21.4018L5.73214 12.5357C5.89286 11.1071 7.09821 10 8.57143 10H31.4286C32.9018 10 34.1071 11.1071 34.2679 12.5357L20.5357 21.4018C20.375 21.5089 20.1875 21.5625 20 21.5625C19.8125 21.5625 19.625 21.5089 19.4643 21.4018ZM22.0893 23.8036L34.2857 15.9286V27.1429C34.2857 28.7232 33.0089 30 31.4286 30H8.57143C6.99107 30 5.71429 28.7232 5.71429 27.1429V15.9286L17.9107 23.8036C18.5357 24.2054 19.2589 24.4196 20 24.4196C20.7411 24.4196 21.4643 24.2054 22.0893 23.8036Z" fill="#EAF4F4"/>
</svg>
