<svg width="40" height="40" viewBox="0 0 40 40" fill="none" xmlns="http://www.w3.org/2000/svg">
<path d="M5.71429 0C2.5625 0 0 2.5625 0 5.71429V34.2857C0 37.4375 2.5625 40 5.71429 40H14.4821V26.9821H9.76786V20H14.4821V16.9911C14.4821 9.21429 18 5.60714 25.6429 5.60714C27.0893 5.60714 29.5893 5.89286 30.6161 6.17857V12.5C30.0804 12.4464 29.1429 12.4107 27.9732 12.4107C24.2232 12.4107 22.7768 13.8304 22.7768 17.5179V20H30.2411L28.9554 26.9821H22.7679V40H34.2857C37.4375 40 40 37.4375 40 34.2857V5.71429C40 2.5625 37.4375 0 34.2857 0H5.71429Z" fill="#EAF4F4"/>
</svg>
