<svg width="120" height="70" viewBox="0 0 120 70" fill="none" xmlns="http://www.w3.org/2000/svg">
<path d="M40.1326 26.25H42.5159C45.596 31.4863 51.3661 35 57.9723 35C59.5054 35 61.0107 34.8086 62.4323 34.4531V35V39.375V65.625C62.4323 68.0449 60.4392 70 57.9723 70C55.5054 70 53.5124 68.0449 53.5124 65.625V46.375L34.5577 61.25H42.3626C44.8295 61.25 46.8225 63.2051 46.8225 65.625C46.8225 68.0449 44.8295 70 42.3626 70H22.2929C14.9061 70 8.91306 64.1211 8.91306 56.875V26.3184C8.91306 24.1172 7.24059 22.2441 5.01062 21.9707L3.90957 21.834C1.47055 21.5332 -0.271615 19.3457 0.0350051 16.9531C0.341626 14.5605 2.57159 12.8516 5.01062 13.1523L6.11167 13.2891C12.8016 14.1094 17.8329 19.6875 17.8329 26.3184V37.9805C22.6274 30.9121 30.8225 26.25 40.1326 26.25ZM62.4323 29.873C61.0385 30.3516 59.5333 30.625 57.9723 30.625C54.0141 30.625 50.4462 28.9297 47.9932 26.25C47.4776 25.6895 47.0176 25.0879 46.6134 24.4453C45.3312 22.4219 44.5925 20.043 44.5925 17.5V4.375V1.64062V1.46289C44.5925 0.65625 45.2476 0.0136719 46.0699 0H46.0978C46.5577 0 46.9898 0.21875 47.2685 0.574219V0.587891L49.0525 2.91211L52.8434 7.875L53.5124 8.75H62.4323L63.1013 7.875L66.8922 2.91211L68.6762 0.587891V0.574219C68.9549 0.21875 69.387 0 69.8469 0H69.8748C70.6971 0.0136719 71.3521 0.65625 71.3521 1.46289V1.64062V4.375V17.5C71.3521 19.8652 70.711 22.0938 69.596 24.0078C68.0211 26.7148 65.4706 28.8203 62.4323 29.873ZM55.7424 17.5C55.7424 16.9198 55.5074 16.3634 55.0892 15.9532C54.671 15.543 54.1038 15.3125 53.5124 15.3125C52.921 15.3125 52.3538 15.543 51.9356 15.9532C51.5174 16.3634 51.2824 16.9198 51.2824 17.5C51.2824 18.0802 51.5174 18.6366 51.9356 19.0468C52.3538 19.457 52.921 19.6875 53.5124 19.6875C54.1038 19.6875 54.671 19.457 55.0892 19.0468C55.5074 18.6366 55.7424 18.0802 55.7424 17.5ZM62.4323 19.6875C63.0237 19.6875 63.5909 19.457 64.0091 19.0468C64.4273 18.6366 64.6622 18.0802 64.6622 17.5C64.6622 16.9198 64.4273 16.3634 64.0091 15.9532C63.5909 15.543 63.0237 15.3125 62.4323 15.3125C61.8408 15.3125 61.2736 15.543 60.8554 15.9532C60.4372 16.3634 60.2023 16.9198 60.2023 17.5C60.2023 18.0802 60.4372 18.6366 60.8554 19.0468C61.2736 19.457 61.8408 19.6875 62.4323 19.6875Z" fill="#000000"/>
<path d="M98.7174 40.1782H100.342C102.442 43.7475 106.375 46.1426 110.879 46.1426C111.924 46.1426 112.95 46.0121 113.919 45.7698V46.1426V49.1248V67.0178C113.919 68.6673 112.561 70 110.879 70C109.197 70 107.838 68.6673 107.838 67.0178V53.8962L94.9169 64.0356H100.238C101.919 64.0356 103.278 65.3683 103.278 67.0178C103.278 68.6673 101.919 70 100.238 70H86.5559C81.5203 70 77.4348 65.9927 77.4348 61.0535V40.2248C77.4348 38.7244 76.2947 37.4477 74.7745 37.2613L74.0239 37.1681C72.3612 36.9631 71.1736 35.472 71.3826 33.8411C71.5917 32.2102 73.1118 31.0453 74.7745 31.2503L75.5251 31.3435C80.0857 31.9027 83.5156 35.705 83.5156 40.2248V48.1742C86.784 43.3561 92.3706 40.1782 98.7174 40.1782ZM113.919 42.6478C112.969 42.974 111.943 43.1604 110.879 43.1604C108.181 43.1604 105.748 42.0048 104.076 40.1782C103.724 39.7961 103.411 39.3861 103.135 38.9481C102.261 37.5688 101.758 35.9473 101.758 34.2139V25.2673V23.4035V23.2823C101.758 22.7325 102.204 22.2945 102.765 22.2852H102.784C103.097 22.2852 103.392 22.4343 103.582 22.6766V22.6859L104.798 24.2702L107.382 27.6531L107.838 28.2495H113.919L114.375 27.6531L116.96 24.2702L118.176 22.6859V22.6766C118.366 22.4343 118.66 22.2852 118.974 22.2852H118.993C119.553 22.2945 120 22.7325 120 23.2823V23.4035V25.2673V34.2139C120 35.8261 119.563 37.3452 118.803 38.6499C117.729 40.4951 115.99 41.9303 113.919 42.6478ZM109.359 34.2139C109.359 33.8184 109.198 33.4391 108.913 33.1595C108.628 32.8799 108.242 32.7228 107.838 32.7228C107.435 32.7228 107.049 32.8799 106.764 33.1595C106.478 33.4391 106.318 33.8184 106.318 34.2139C106.318 34.6093 106.478 34.9886 106.764 35.2682C107.049 35.5479 107.435 35.705 107.838 35.705C108.242 35.705 108.628 35.5479 108.913 35.2682C109.198 34.9886 109.359 34.6093 109.359 34.2139ZM113.919 35.705C114.322 35.705 114.709 35.5479 114.994 35.2682C115.279 34.9886 115.439 34.6093 115.439 34.2139C115.439 33.8184 115.279 33.4391 114.994 33.1595C114.709 32.8799 114.322 32.7228 113.919 32.7228C113.516 32.7228 113.129 32.8799 112.844 33.1595C112.559 33.4391 112.399 33.8184 112.399 34.2139C112.399 34.6093 112.559 34.9886 112.844 35.2682C113.129 35.5479 113.516 35.705 113.919 35.705Z" fill="#000000"/>
</svg>
