<svg width="40" height="40" viewBox="0 0 40 40" fill="none" xmlns="http://www.w3.org/2000/svg">
<path d="M17.3571 16.0446C16.8371 16.3923 16.3907 16.839 16.0433 17.3592C15.6959 17.8793 15.4544 18.4629 15.3325 19.0764C15.0864 20.3155 15.3425 21.6016 16.0446 22.6518C16.7468 23.702 17.8373 24.4303 19.0764 24.6764C20.3155 24.9226 21.6016 24.6664 22.6518 23.9643C23.702 23.2622 24.4303 22.1716 24.6764 20.9325C24.9226 19.6935 24.6664 18.4074 23.9643 17.3571C23.2622 16.3069 22.1716 15.5786 20.9325 15.3325C19.6935 15.0864 18.4074 15.3425 17.3571 16.0446ZM30.0625 9.9375C29.5982 9.47321 29.0357 9.10714 28.4196 8.86607C26.8036 8.23214 23.2768 8.25893 21 8.28571C20.6339 8.28571 20.2946 8.29464 20 8.29464C19.7054 8.29464 19.3571 8.29464 18.9821 8.28571C16.7054 8.25893 13.1964 8.22321 11.5804 8.86607C10.9643 9.10714 10.4107 9.47321 9.9375 9.9375C9.46429 10.4018 9.10714 10.9643 8.86607 11.5804C8.23214 13.1964 8.26786 16.7321 8.28571 19.0089C8.28571 19.375 8.29464 19.7143 8.29464 20C8.29464 20.2857 8.29464 20.625 8.28571 20.9911C8.26786 23.2679 8.23214 26.8036 8.86607 28.4196C9.10714 29.0357 9.47321 29.5893 9.9375 30.0625C10.4018 30.5357 10.9643 30.8929 11.5804 31.1339C13.1964 31.7679 16.7232 31.7411 19 31.7143C19.3661 31.7143 19.7054 31.7054 20 31.7054C20.2946 31.7054 20.6429 31.7054 21.0179 31.7143C23.2946 31.7411 26.8036 31.7768 28.4196 31.1339C29.0357 30.8929 29.5893 30.5268 30.0625 30.0625C30.5357 29.5982 30.8929 29.0357 31.1339 28.4196C31.7768 26.8125 31.7411 23.2946 31.7143 21.0089C31.7143 20.6339 31.7054 20.2857 31.7054 19.9911C31.7054 19.6964 31.7054 19.3571 31.7143 18.9732C31.7411 16.6964 31.7768 13.1786 31.1339 11.5625C30.8929 10.9464 30.5268 10.3929 30.0625 9.91964V9.9375ZM24.0714 13.9107C25.6864 14.9905 26.8063 16.6677 27.1847 18.5732C27.5631 20.4787 27.1691 22.4565 26.0893 24.0714C25.5546 24.8711 24.8677 25.5576 24.0677 26.0918C23.2677 26.626 22.3703 26.9973 21.4268 27.1847C19.5213 27.5631 17.5436 27.1691 15.9286 26.0893C14.3136 25.0107 13.1932 23.3347 12.814 21.43C12.4347 19.5253 12.8276 17.548 13.9063 15.933C14.9849 14.3181 16.6609 13.1977 18.5655 12.8184C20.4702 12.4392 22.4475 12.8321 24.0625 13.9107H24.0714ZM26.6786 13.7946C26.4018 13.6071 26.1786 13.3393 26.0446 13.0268C25.9107 12.7143 25.8839 12.375 25.9464 12.0357C26.0089 11.6964 26.1786 11.4018 26.4107 11.1607C26.6429 10.9196 26.9554 10.7589 27.2857 10.6964C27.6161 10.6339 27.9643 10.6607 28.2768 10.7946C28.5893 10.9286 28.8571 11.1429 29.0446 11.4196C29.2321 11.6964 29.3304 12.0268 29.3304 12.3661C29.3304 12.5893 29.2857 12.8125 29.2054 13.0179C29.125 13.2232 28.9911 13.4107 28.8393 13.5714C28.6875 13.7321 28.4911 13.8571 28.2857 13.9464C28.0804 14.0357 27.8571 14.0804 27.6339 14.0804C27.2946 14.0804 26.9643 13.9821 26.6875 13.7946H26.6786ZM40 5.71429C40 2.5625 37.4375 0 34.2857 0H5.71429C2.5625 0 0 2.5625 0 5.71429V34.2857C0 37.4375 2.5625 40 5.71429 40H34.2857C37.4375 40 40 37.4375 40 34.2857V5.71429ZM31.875 31.875C30.2054 33.5446 28.1786 34.0714 25.8929 34.1875C23.5357 34.3214 16.4643 34.3214 14.1071 34.1875C11.8214 34.0714 9.79464 33.5446 8.125 31.875C6.45536 30.2054 5.92857 28.1786 5.82143 25.8929C5.6875 23.5357 5.6875 16.4643 5.82143 14.1071C5.9375 11.8214 6.45536 9.79464 8.125 8.125C9.79464 6.45536 11.8304 5.92857 14.1071 5.82143C16.4643 5.6875 23.5357 5.6875 25.8929 5.82143C28.1786 5.9375 30.2054 6.45536 31.875 8.125C33.5446 9.79464 34.0714 11.8214 34.1786 14.1071C34.3125 16.4554 34.3125 23.5179 34.1786 25.8839C34.0625 28.1696 33.5446 30.1964 31.875 31.8661V31.875Z" fill="#EAF4F4"/>
</svg>
